<?xml version="1.0" encoding="UTF-8" standalone="no"?>
<svg width="60px" height="61px" viewBox="0 0 60 61" version="1.1" xmlns="http://www.w3.org/2000/svg" xmlns:xlink="http://www.w3.org/1999/xlink">
    <!-- Generator: Sketch 3.6.1 (26313) - http://www.bohemiancoding.com/sketch -->
    <title>icon-notifications</title>
    <desc>Created with Sketch.</desc>
    <defs></defs>
    <g id="Page-1" stroke="none" stroke-width="1" fill="none" fill-rule="evenodd">
        <g id="icon-notifications" fill="#FFFFFF">
            <path d="M2,50.66 L58,50.66 L58,45.34 C58,43.92 56.64,42.68 55.32,42.32 C51.34,41.202 49.72,37.02 49.72,27.922 C49.72,16.74 40.64,7.66 29.48,7.66 C18.32,7.66 9.22,16.74 9.22,27.922 C9.22,37.5 7.9,41.262 4.16,42.32 C2.84,42.68 2,43.86 2,45.34 L2,50.66 L2,50.66 Z M59,52.66 L1,52.66 C0.44,52.66 0,52.22 0,51.66 L0,45.34 C0,42.98 1.46,41 3.62,40.38 C5.9,39.742 7.22,37.5 7.22,27.922 C7.22,15.64 17.2,5.66 29.48,5.66 C41.74,5.66 51.72,15.64 51.72,27.922 C51.72,37.88 53.82,39.82 55.86,40.38 C57.92,40.96 60,42.84 60,45.34 L60,51.66 C60,52.22 59.56,52.66 59,52.66 L59,52.66 Z" id="Fill-955"></path>
            <path d="M29.48,60.16 C24.78,60.16 20.98,56.34 20.98,51.66 C20.98,51.102 21.42,50.66 21.98,50.66 C22.52,50.66 22.98,51.102 22.98,51.66 C22.98,55.24 25.9,58.16 29.48,58.16 C33.06,58.16 35.98,55.24 35.98,51.66 C35.98,51.102 36.42,50.66 36.98,50.66 C37.52,50.66 37.98,51.102 37.98,51.66 C37.98,56.34 34.16,60.16 29.48,60.16" id="Fill-956"></path>
            <path d="M34.44,8.262 C34.4,8.262 34.38,8.262 34.34,8.242 C33.78,8.18 33.38,7.702 33.44,7.14 C33.46,6.98 33.48,6.82 33.48,6.66 C33.48,4.46 31.68,2.66 29.48,2.66 C27.28,2.66 25.48,4.46 25.48,6.66 C25.48,6.82 25.48,6.98 25.5,7.14 C25.56,7.68 25.18,8.18 24.62,8.242 C24.08,8.3 23.58,7.9 23.52,7.362 C23.5,7.14 23.48,6.9 23.48,6.66 C23.48,3.36 26.16,0.66 29.48,0.66 C32.78,0.66 35.48,3.36 35.48,6.66 C35.48,6.9 35.46,7.14 35.44,7.362 C35.38,7.88 34.94,8.262 34.44,8.262" id="Fill-957"></path>
        </g>
    </g>
</svg>