<?xml version="1.0" encoding="UTF-8" standalone="no"?>
<svg width="60px" height="61px" viewBox="0 0 60 61" version="1.1" xmlns="http://www.w3.org/2000/svg" xmlns:xlink="http://www.w3.org/1999/xlink">
    <!-- Generator: Sketch 3.6.1 (26313) - http://www.bohemiancoding.com/sketch -->
    <title>icon-target</title>
    <desc>Created with Sketch.</desc>
    <defs></defs>
    <g id="Page-1" stroke="none" stroke-width="1" fill="none" fill-rule="evenodd">
        <g id="icon-target" fill="#FFFFFF">
            <path d="M59,31.66 L41,31.66 C40.448,31.66 40,31.222 40,30.66 C40,30.1 40.448,29.662 41,29.662 L59,29.662 C59.552,29.662 60,30.1 60,30.66 C60,31.222 59.552,31.66 59,31.66" id="Fill-5556"></path>
            <path d="M19,31.66 L1,31.66 C0.448,31.66 0,31.222 0,30.66 C0,30.1 0.448,29.662 1,29.662 L19,29.662 C19.552,29.662 20,30.1 20,30.66 C20,31.222 19.552,31.66 19,31.66" id="Fill-5557"></path>
            <path d="M30,20.662 C29.448,20.662 29,20.22 29,19.66 L29,1.66 C29,1.1 29.448,0.66 30,0.66 C30.552,0.66 31,1.1 31,1.66 L31,19.66 C31,20.22 30.552,20.662 30,20.662" id="Fill-5558"></path>
            <path d="M30,60.66 C29.448,60.66 29,60.222 29,59.662 L29,41.662 C29,41.1 29.448,40.66 30,40.66 C30.552,40.66 31,41.1 31,41.662 L31,59.662 C31,60.222 30.552,60.66 30,60.66" id="Fill-5559"></path>
            <path d="M30,29.16 C29.172,29.16 28.5,29.84 28.5,30.66 C28.5,31.48 29.172,32.16 30,32.16 C30.828,32.16 31.5,31.48 31.5,30.66 C31.5,29.84 30.828,29.16 30,29.16 L30,29.16 Z M30,34.162 C28.07,34.162 26.5,32.582 26.5,30.66 C26.5,28.74 28.07,27.16 30,27.16 C31.93,27.16 33.5,28.74 33.5,30.66 C33.5,32.582 31.93,34.162 30,34.162 L30,34.162 Z" id="Fill-5560"></path>
            <path d="M30,15.18 C21.46,15.18 14.512,22.122 14.512,30.66 C14.512,39.2 21.46,46.14 30,46.14 C38.54,46.14 45.488,39.2 45.488,30.66 C45.488,22.122 38.54,15.18 30,15.18 L30,15.18 Z M30,48.142 C20.356,48.142 12.512,40.302 12.512,30.66 C12.512,21.02 20.356,13.18 30,13.18 C39.644,13.18 47.488,21.02 47.488,30.66 C47.488,40.302 39.644,48.142 30,48.142 L30,48.142 Z" id="Fill-5561"></path>
            <path d="M30,7.62 C17.3,7.62 6.968,17.962 6.968,30.66 C6.968,43.36 17.3,53.68 30,53.68 C42.7,53.68 53.032,43.36 53.032,30.66 C53.032,17.962 42.7,7.62 30,7.62 L30,7.62 Z M30,55.68 C16.198,55.68 4.968,44.46 4.968,30.66 C4.968,16.86 16.198,5.622 30,5.622 C43.802,5.622 55.032,16.86 55.032,30.66 C55.032,44.46 43.802,55.68 30,55.68 L30,55.68 Z" id="Fill-5562"></path>
        </g>
    </g>
</svg>