<?xml version="1.0" encoding="UTF-8" standalone="no"?>
<svg width="47px" height="65px" viewBox="0 0 47 65" version="1.1" xmlns="http://www.w3.org/2000/svg" xmlns:xlink="http://www.w3.org/1999/xlink">
    <!-- Generator: Sketch 3.6.1 (26313) - http://www.bohemiancoding.com/sketch -->
    <title>icon-warranty</title>
    <desc>Created with Sketch.</desc>
    <defs></defs>
    <g id="Page-1" stroke="none" stroke-width="1" fill="none" fill-rule="evenodd">
        <g id="icon-warranty" fill="#FFFFFF">
            <path d="M23.5219592,2.83242312 C12.0937959,2.83242312 2.79918367,11.8216396 2.79918367,22.8510527 C2.79918367,33.9038917 12.0937959,42.8696822 23.5219592,42.8696822 C34.9567347,42.8696822 44.2359184,33.9038917 44.2359184,22.8510527 C44.2359184,11.8216396 34.9567347,2.83242312 23.5219592,2.83242312 L23.5219592,2.83242312 Z M23.5219592,44.9993236 C10.8793469,44.9993236 0.595102041,35.0751945 0.595102041,22.8510527 C0.595102041,10.6482072 10.8793469,0.704911317 23.5219592,0.704911317 C36.1689796,0.704911317 46.44,10.6482072 46.44,22.8510527 C46.44,35.0751945 36.1689796,44.9993236 23.5219592,44.9993236 L23.5219592,44.9993236 Z" id="Fill-4509"></path>
            <path d="M23.3829989,28.1692997 C23.6144275,28.1692997 23.843652,28.2353186 24.0376112,28.3843935 L30.2487132,32.8119181 L27.9035703,25.9757691 C27.7492846,25.5285444 27.9234071,25.01956 28.3311622,24.7618734 L34.3703459,20.80287 L26.8279785,20.80287 C26.3496928,20.80287 25.9287132,20.5025906 25.7788357,20.0553658 L23.3829989,12.9444931 L20.9915703,20.0553658 C20.8438969,20.5025906 20.4229173,20.80287 19.9446316,20.80287 L12.3890397,20.80287 L18.4414479,24.7852995 C18.8514071,25.0621529 19.0255295,25.5498408 18.8646316,26.0204915 L16.526101,32.705436 L22.7394071,28.3843935 C22.9311622,28.2353186 23.1581826,28.1692997 23.3829989,28.1692997 L23.3829989,28.1692997 Z M32.3866724,36.7304583 C32.1574479,36.7304583 31.9260193,36.6686987 31.7320601,36.5174942 L23.3741826,30.5566278 L15.0251214,36.3705489 C14.6394071,36.6474023 14.1104275,36.6474023 13.7269173,36.3705489 C13.3434071,36.0936955 13.1847132,35.603878 13.3389989,35.1566533 L16.5106724,26.0843808 L8.19687647,20.6090726 C7.79573361,20.3556453 7.62161116,19.8636981 7.76267239,19.4164734 C7.90593769,18.9713784 8.33132545,18.6732286 8.81622341,18.6732286 L19.1423459,18.6732286 L22.3360601,9.17502773 C22.6314071,8.2997451 24.1345908,8.2997451 24.4321418,9.17502773 L27.6280601,18.6732286 L37.9453663,18.6732286 C38.4302642,18.6732286 38.8710806,18.9713784 39.0033254,19.4164734 C39.1576112,19.8636981 38.9812846,20.3556453 38.5625091,20.6090726 L30.2575295,26.0630844 L33.4336112,35.324895 C33.5834887,35.7721197 33.4225908,36.2619372 33.0324683,36.5174942 C32.8407132,36.6686987 32.6136928,36.7304583 32.3866724,36.7304583 L32.3866724,36.7304583 Z" id="Fill-9519"></path>
            <path d="M40.6212245,64.0596145 C40.5110204,64.0596145 40.4008163,64.0404477 40.2906122,64.0191513 L23.0701224,58.9080119 C22.6072653,58.7802334 22.2898776,58.3521755 22.2898776,57.8836543 L22.2898776,43.9345029 C22.2898776,43.3594997 22.7835918,42.8696822 23.3919184,42.8696822 C24.002449,42.8696822 24.4939592,43.3594997 24.4939592,43.9345029 L24.4939592,57.095687 L39.2987755,61.4827484 L36.3453061,39.313181 C36.2791837,38.7168814 36.6979592,38.1866007 37.2930612,38.1205818 C37.8881633,38.0353961 38.4612245,38.463454 38.5273469,39.0384572 L41.7012245,62.8691449 C41.7453061,63.2077579 41.6130612,63.5719266 41.3265306,63.8040575 C41.1281633,63.9744289 40.8636735,64.0596145 40.6212245,64.0596145" id="Fill-4510"></path>
            <path d="M6.17363265,64.0596145 C5.91795918,64.0596145 5.6644898,63.9744289 5.46391837,63.8040575 C5.17738776,63.5719266 5.03191837,63.2077579 5.08040816,62.8691449 L8.28293878,38.8446599 C8.36008163,38.2483603 8.92653061,37.822432 9.51502041,37.9097473 C10.1211429,37.9928033 10.5465306,38.5252136 10.4693878,39.1002168 L7.48506122,61.4827484 L22.2898776,57.095687 L22.2898776,43.9345029 C22.2898776,43.3594997 22.7835918,42.8696822 23.3919184,42.8696822 C24.002449,42.8696822 24.4939592,43.3594997 24.4939592,43.9345029 L24.4939592,57.8836543 C24.4939592,58.3521755 24.1787755,58.7802334 23.7159184,58.9080119 L6.49542857,64.0191513 C6.38963265,64.0404477 6.28163265,64.0596145 6.17363265,64.0596145" id="Fill-4511"></path>
        </g>
    </g>
</svg>