<?xml version="1.0" encoding="UTF-8" standalone="no"?>
<svg width="67px" height="56px" viewBox="0 0 67 56" version="1.1" xmlns="http://www.w3.org/2000/svg" xmlns:xlink="http://www.w3.org/1999/xlink">
    <!-- Generator: Sketch 3.6.1 (26313) - http://www.bohemiancoding.com/sketch -->
    <title>icon-portal</title>
    <desc>Created with Sketch.</desc>
    <defs></defs>
    <g id="Page-1" stroke="none" stroke-width="1" fill="none" fill-rule="evenodd">
        <g id="icon-portal" fill="#FFFFFF">
            <path d="M2.23333333,53.6470588 L64.7666667,53.6470588 L64.7666667,2.23529412 L2.23333333,2.23529412 L2.23333333,53.6470588 Z M65.8833333,55.8845882 L1.11666667,55.8845882 C0.491333333,55.8845882 0,55.3928235 0,54.7669412 L0,1.11988235 C0,0.491764706 0.491333333,0 1.11666667,0 L65.8833333,0 C66.5086667,0 67,0.491764706 67,1.11988235 L67,54.7669412 C67,55.3928235 66.5086667,55.8845882 65.8833333,55.8845882 L65.8833333,55.8845882 Z" id="Fill-8478"></path>
            <path d="M64.65,13.2330588 L2.11666667,13.2330588 C1.49133333,13.2330588 1,12.7435294 1,12.1176471 C1,11.4895294 1.49133333,11 2.11666667,11 L64.65,11 C65.2753333,11 65.7666667,11.4895294 65.7666667,12.1176471 C65.7666667,12.7435294 65.2753333,13.2330588 64.65,13.2330588" id="Fill-8479"></path>
            <path d="M23.2333333,44.8823529 L43.3333333,44.8823529 L43.3333333,29.2352941 L23.2333333,29.2352941 L23.2333333,44.8823529 Z M44.45,47.1176471 L22.1166667,47.1176471 C21.4913333,47.1176471 21,46.6236471 21,45.9977647 L21,28.1176471 C21,27.4895294 21.4913333,27 22.1166667,27 L44.45,27 C45.0753333,27 45.5666667,27.4895294 45.5666667,28.1176471 L45.5666667,45.9977647 C45.5666667,46.6236471 45.0753333,47.1176471 44.45,47.1176471 L44.45,47.1176471 Z" id="Fill-8480"></path>
            <path d="M22.293035,26.9471724 L44.3225829,26.9471724 L33.2975435,19.2804058 L22.293035,26.9471724 L22.293035,26.9471724 Z M47.6280416,29 L47.58698,29 L19.0286378,29 C18.5769602,29 18.186875,28.7123165 18.0431595,28.2807911 C17.9199747,27.8513207 18.0636903,27.3786977 18.4332446,27.1300569 L32.7226812,17.1864806 C33.0717047,16.9378398 33.5439131,16.9378398 33.8929367,17.1864806 L48.0181268,27.0273128 C48.3876812,27.1711546 48.6545816,27.5430883 48.6545816,27.9746136 C48.6545816,28.5499807 48.202904,29 47.6280416,29 L47.6280416,29 Z" id="Fill-8481"></path>
            <path d="M8.911,7.00458824 C8.911,7.78470588 8.28566667,8.41058824 7.504,8.41058824 C6.74466667,8.41058824 6.11933333,7.78470588 6.11933333,7.00458824 C6.11933333,6.22223529 6.74466667,5.61870588 7.504,5.61870588 C8.28566667,5.61870588 8.911,6.22223529 8.911,7.00458824" id="Fill-8482"></path>
            <path d="M14.4943333,7.00458824 C14.4943333,7.78470588 13.869,8.41058824 13.0873333,8.41058824 C12.328,8.41058824 11.7026667,7.78470588 11.7026667,7.00458824 C11.7026667,6.22223529 12.328,5.61870588 13.0873333,5.61870588 C13.869,5.61870588 14.4943333,6.22223529 14.4943333,7.00458824" id="Fill-8483"></path>
            <path d="M20.0776667,7.00458824 C20.0776667,7.78470588 19.4523333,8.41058824 18.6706667,8.41058824 C17.9113333,8.41058824 17.286,7.78470588 17.286,7.00458824 C17.286,6.22223529 17.9113333,5.61870588 18.6706667,5.61870588 C19.4523333,5.61870588 20.0776667,6.22223529 20.0776667,7.00458824" id="Fill-8484"></path>
        </g>
    </g>
</svg>