<?xml version="1.0" encoding="UTF-8" standalone="no"?>
<svg width="60px" height="60px" viewBox="0 0 60 60" version="1.1" xmlns="http://www.w3.org/2000/svg" xmlns:xlink="http://www.w3.org/1999/xlink">
    <!-- Generator: Sketch 3.6.1 (26313) - http://www.bohemiancoding.com/sketch -->
    <title>icon-calendar</title>
    <desc>Created with Sketch.</desc>
    <defs></defs>
    <g id="Page-1" stroke="none" stroke-width="1" fill="none" fill-rule="evenodd">
        <g id="icon-calendar" fill="#FFFFFF">
            <path d="M5,7.662 C3.346,7.662 2,9 2,10.662 L2,54.662 C2,56.32 3.346,57.662 5,57.662 L55,57.662 C56.654,57.662 58,56.32 58,54.662 L58,10.662 C58,9 56.654,7.662 55,7.662 L5,7.662 L5,7.662 Z M55,59.66 L5,59.66 C2.244,59.66 0,57.42 0,54.662 L0,10.662 C0,7.9 2.244,5.66 5,5.66 L55,5.66 C57.756,5.66 60,7.9 60,10.662 L60,54.662 C60,57.42 57.756,59.66 55,59.66 L55,59.66 Z" id="Fill-1944"></path>
            <path d="M17,10.662 C16.448,10.662 16,10.22 16,9.662 L16,1.662 C16,1.1 16.448,0.662 17,0.662 C17.552,0.662 18,1.1 18,1.662 L18,9.662 C18,10.22 17.552,10.662 17,10.662" id="Fill-1945"></path>
            <path d="M45,10.662 C44.448,10.662 44,10.22 44,9.662 L44,1.662 C44,1.1 44.448,0.662 45,0.662 C45.552,0.662 46,1.1 46,1.662 L46,9.662 C46,10.22 45.552,10.662 45,10.662" id="Fill-1946"></path>
            <path d="M50,17.66 L10,17.66 C9.448,17.66 9,17.22 9,16.662 C9,16.1 9.448,15.662 10,15.662 L50,15.662 C50.552,15.662 51,16.1 51,16.662 C51,17.22 50.552,17.66 50,17.66" id="Fill-1947"></path>
            <path d="M18,25.662 L10,25.662 C9.448,25.662 9,25.22 9,24.662 C9,24.1 9.448,23.66 10,23.66 L18,23.66 C18.552,23.66 19,24.1 19,24.662 C19,25.22 18.552,25.662 18,25.662" id="Fill-1948"></path>
            <path d="M34,25.662 L26,25.662 C25.448,25.662 25,25.22 25,24.662 C25,24.1 25.448,23.66 26,23.66 L34,23.66 C34.552,23.66 35,24.1 35,24.662 C35,25.22 34.552,25.662 34,25.662" id="Fill-1949"></path>
            <path d="M50,25.662 L42,25.662 C41.448,25.662 41,25.22 41,24.662 C41,24.1 41.448,23.66 42,23.66 L50,23.66 C50.552,23.66 51,24.1 51,24.662 C51,25.22 50.552,25.662 50,25.662" id="Fill-1950"></path>
            <path d="M18,33.662 L10,33.662 C9.448,33.662 9,33.22 9,32.66 C9,32.1 9.448,31.662 10,31.662 L18,31.662 C18.552,31.662 19,32.1 19,32.66 C19,33.22 18.552,33.662 18,33.662" id="Fill-1951"></path>
            <path d="M34,33.662 L26,33.662 C25.448,33.662 25,33.22 25,32.66 C25,32.1 25.448,31.662 26,31.662 L34,31.662 C34.552,31.662 35,32.1 35,32.66 C35,33.22 34.552,33.662 34,33.662" id="Fill-1952"></path>
            <path d="M50,33.662 L42,33.662 C41.448,33.662 41,33.22 41,32.66 C41,32.1 41.448,31.662 42,31.662 L50,31.662 C50.552,31.662 51,32.1 51,32.66 C51,33.22 50.552,33.662 50,33.662" id="Fill-1953"></path>
            <path d="M18,41.66 L10,41.66 C9.448,41.66 9,41.22 9,40.662 C9,40.1 9.448,39.662 10,39.662 L18,39.662 C18.552,39.662 19,40.1 19,40.662 C19,41.22 18.552,41.66 18,41.66" id="Fill-1954"></path>
            <path d="M34,41.66 L26,41.66 C25.448,41.66 25,41.22 25,40.662 C25,40.1 25.448,39.662 26,39.662 L34,39.662 C34.552,39.662 35,40.1 35,40.662 C35,41.22 34.552,41.66 34,41.66" id="Fill-1955"></path>
            <path d="M50,41.66 L42,41.66 C41.448,41.66 41,41.22 41,40.662 C41,40.1 41.448,39.662 42,39.662 L50,39.662 C50.552,39.662 51,40.1 51,40.662 C51,41.22 50.552,41.66 50,41.66" id="Fill-1956"></path>
            <path d="M18,49.662 L10,49.662 C9.448,49.662 9,49.22 9,48.662 C9,48.1 9.448,47.66 10,47.66 L18,47.66 C18.552,47.66 19,48.1 19,48.662 C19,49.22 18.552,49.662 18,49.662" id="Fill-1957"></path>
            <path d="M34,49.662 L26,49.662 C25.448,49.662 25,49.22 25,48.662 C25,48.1 25.448,47.66 26,47.66 L34,47.66 C34.552,47.66 35,48.1 35,48.662 C35,49.22 34.552,49.662 34,49.662" id="Fill-1958"></path>
            <path d="M50,49.662 L42,49.662 C41.448,49.662 41,49.22 41,48.662 C41,48.1 41.448,47.66 42,47.66 L50,47.66 C50.552,47.66 51,48.1 51,48.662 C51,49.22 50.552,49.662 50,49.662" id="Fill-1959"></path>
        </g>
    </g>
</svg>