<?xml version="1.0" encoding="UTF-8" standalone="no"?>
<svg width="55px" height="61px" viewBox="0 0 55 61" version="1.1" xmlns="http://www.w3.org/2000/svg" xmlns:xlink="http://www.w3.org/1999/xlink">
    <!-- Generator: Sketch 3.6.1 (26313) - http://www.bohemiancoding.com/sketch -->
    <title>icon-allinone</title>
    <desc>Created with Sketch.</desc>
    <defs></defs>
    <g id="Page-1" stroke="none" stroke-width="1" fill="none" fill-rule="evenodd">
        <g id="icon-allinone" fill="#FFFFFF">
            <path d="M27.426,57.42 C20.458,57.42 13.49,54.782 8.184,49.522 C7.792,49.14 7.79,48.5 8.178,48.102 C8.568,47.72 9.202,47.72 9.592,48.102 C19.426,57.862 35.426,57.862 45.26,48.102 C51.604,41.8 54.104,32.542 51.788,23.942 C51.644,23.4 51.96,22.86 52.494,22.72 C53.024,22.56 53.576,22.88 53.72,23.422 C56.222,32.72 53.52,42.72 46.668,49.522 C41.364,54.782 34.394,57.42 27.426,57.42" id="Fill-2966"></path>
            <path d="M2.098,38.14 C1.658,38.14 1.254,37.86 1.134,37.4 C-1.37,28.102 1.334,18.102 8.184,11.3 C18.794,0.762 36.06,0.762 46.668,11.3 C47.062,11.68 47.064,12.32 46.674,12.72 C46.286,13.102 45.65,13.102 45.26,12.72 C35.426,2.96 19.426,2.96 9.592,12.72 C3.25,19.02 0.75,28.282 3.066,36.88 C3.208,37.422 2.892,37.96 2.36,38.122 C2.272,38.14 2.184,38.14 2.098,38.14" id="Fill-2967"></path>
            <path d="M7.618,60.16 L7.496,60.16 C6.948,60.08 6.558,59.58 6.626,59.042 L7.896,48.68 C7.946,48.282 8.232,47.96 8.622,47.84 L18.736,45.042 C19.268,44.9 19.82,45.202 19.968,45.742 C20.116,46.262 19.804,46.82 19.272,46.96 L9.8,49.602 L8.61,59.282 C8.548,59.782 8.116,60.16 7.618,60.16" id="Fill-2968"></path>
            <path d="M35.848,15.82 C35.412,15.82 35.008,15.542 34.886,15.102 C34.738,14.56 35.05,14 35.582,13.86 L45.054,11.22 L46.246,1.542 C46.312,1 46.804,0.602 47.36,0.66 C47.908,0.742 48.298,1.24 48.23,1.782 L46.958,12.14 C46.908,12.542 46.622,12.862 46.232,12.98 L36.118,15.782 C36.028,15.82 35.938,15.82 35.848,15.82" id="Fill-2969"></path>
        </g>
    </g>
</svg>